<?xml version="1.0" encoding="UTF-8" standalone="no"?>
<!-- Generator: Adobe Illustrator 16.0.0, SVG Export Plug-In . SVG Version: 6.00 Build 0)  -->

<svg
   xmlns:dc="http://purl.org/dc/elements/1.1/"
   xmlns:cc="http://creativecommons.org/ns#"
   xmlns:rdf="http://www.w3.org/1999/02/22-rdf-syntax-ns#"
   xmlns:svg="http://www.w3.org/2000/svg"
   xmlns="http://www.w3.org/2000/svg"
   xmlns:sodipodi="http://sodipodi.sourceforge.net/DTD/sodipodi-0.dtd"
   xmlns:inkscape="http://www.inkscape.org/namespaces/inkscape"
   version="1.1"
   id="Livello_1"
   x="0px"
   y="0px"
   width="213"
   height="96"
   viewBox="0 0 213 96"
   enable-background="new 0 0 595.281 841.89"
   xml:space="preserve"
   sodipodi:docname="langue-logo.svg"
   inkscape:version="0.92.1 r15371"><metadata
     id="metadata37"><rdf:RDF><cc:Work
         rdf:about=""><dc:format>image/svg+xml</dc:format><dc:type
           rdf:resource="http://purl.org/dc/dcmitype/StillImage" /><dc:title></dc:title></cc:Work></rdf:RDF></metadata><defs
     id="defs35" /><sodipodi:namedview
     pagecolor="#ffffff"
     bordercolor="#666666"
     borderopacity="1"
     objecttolerance="10"
     gridtolerance="10"
     guidetolerance="10"
     inkscape:pageopacity="0"
     inkscape:pageshadow="2"
     inkscape:window-width="1366"
     inkscape:window-height="714"
     id="namedview33"
     showgrid="false"
     inkscape:zoom="4"
     inkscape:cx="127.88011"
     inkscape:cy="66.443884"
     inkscape:window-x="0"
     inkscape:window-y="0"
     inkscape:window-maximized="1"
     inkscape:current-layer="Livello_1" /><g
     id="g12"
     transform="matrix(0.63293001,0,0,0.63293001,-102.15274,-129.87185)"><path
       stroke-miterlimit="10"
       d="m 161.403,354.355 h 87 c 0,0 -3.332,-8 -5.5,-9.333 0,0 -4.5,-4.667 -8.332,-6.667 0,0 -3.5,-1.167 -5,-5.667 l -3.668,-7.833 c 0,0 -0.666,-9.833 0.5,-9.833 0,0 1.168,-5.5 4.834,-2 0,0 2.666,-0.833 7.832,10.5 0,0 1.334,2.5 6.5,4 0,0 3.834,1.667 6.5,4 0,0 6.168,2.833 12,6.667 0,0 30.668,0.667 45.667,-0.667 l 20,-4.416 c 0,0 24.166,-33.584 26.832,-33.751 0,0 5,-6.666 5.668,-10.833 0,0 5.666,-5.997 12.5,-6.664 0,0 8.166,-0.333 16,7.5 0,0 8.332,6.5 14.5,13 0,0 15.5,8.333 18.5,8.5 0,0 5.167,2.333 7.167,4.5 0,0 3.334,-0.833 4.168,-3.5 l -0.668,-3 -11.001,-10 c 0,0 -2.625,-2.253 -4.5,-3.128 0,0 -10.5,0.25 -13.625,-6.25 l -8.625,-0.625 c 0,0 -1.5,0.625 -1.625,-1.375 0,0 -12,-22.375 -17,-27.5 0,0 -1.5,-2 1.125,-3.375 l 15.5,-19.625 c 0,0 2.25,-0.625 3.125,0.875 l 2.875,9.375 10.375,-0.375 c 0,0 2.5,0.25 2.875,2.375 l 8.375,26.625 c 0,0 2.875,-0.125 3.75,2.25 0,0 2.876,1 3.376,5.5 l 0.5,5.125 c 0,0 1.25,1.75 2.125,2.5 l 8.016,7.875 c 0,0 1.109,0.375 1.984,-0.125 l 8.514,-14.25 c 0,0 5.361,-15.5 11.611,-17.875 0,0 4.875,-2.625 8,-3.125 0,0 0.875,-0.25 1.625,-1.625 0,0 1.25,-5.875 0,-7.75 0,0 -1.625,-1.75 -3.25,-1.625 l -6.875,1.625 c 0,0 -2.375,0.75 -3.25,-1.25 0,0 -2,-4.875 -2.875,-6.25 0,0 -1.75,-0.75 -3.125,-0.5 0,0 -3.25,0.25 -2.875,-2.875 0,0 3.25,-5.5 2.5,-6 0,0 -1.125,-3.25 -2,-5 0,0 -3.25,-3.125 -6.125,-4.25 0,0 -2.5,-0.625 -1.5,-5.125 0,0 3.026,-9.75 8.139,-14.125 0,0 2.111,-1.25 3.736,0 0,0 3,-1.625 4.5,-1.125 0,0 5.274,0.786 7.53,0.974 0.125,0.011 0.238,0.02 0.345,0.026 2,0.125 5.25,1 9.625,1.375 0,0 3.875,0.75 4.375,6.25 l 2.125,14.375 c 0,0 1.25,4.875 0,9.625 0,0 -0.64,2.875 0.557,5.625 0,0 3.068,7.125 4.318,11.75 0,0 0.75,2.25 2.75,3.75 l 4.125,3.625 v 48.953 c 0,0 -4.625,10.005 -8.625,10.505 l -11.166,3.167 c 0,0 -2.5,1.833 -3,3.833 0,0 -9,12.833 -17,22.667 h 39.791 l -0.629,-39.125"
       id="path2"
       inkscape:connector-curvature="0"
       style="fill:none;stroke:#ac9d9e;stroke-width:5;stroke-miterlimit:10" /><g
       id="g10"><line
         stroke-miterlimit="10"
         x1="364.87701"
         y1="333.457"
         x2="392.20901"
         y2="328.74301"
         id="line4"
         style="fill:none;stroke:#ac9d9e;stroke-width:5;stroke-miterlimit:10" /><line
         stroke-miterlimit="10"
         x1="390.20901"
         y1="328.74301"
         x2="376.543"
         y2="318.077"
         id="line6-3"
         style="fill:none;stroke:#ac9d9e;stroke-width:5;stroke-miterlimit:10" /><line
         stroke-miterlimit="10"
         x1="377.543"
         y1="318.077"
         x2="363.87701"
         y2="333.457"
         id="line8-6"
         style="fill:none;stroke:#ac9d9e;stroke-width:5;stroke-miterlimit:10" /></g></g></svg>