<?xml version="1.0" encoding="UTF-8" standalone="no"?>
<!-- Created with Inkscape (http://www.inkscape.org/) -->

<svg
   xmlns:dc="http://purl.org/dc/elements/1.1/"
   xmlns:cc="http://creativecommons.org/ns#"
   xmlns:rdf="http://www.w3.org/1999/02/22-rdf-syntax-ns#"
   xmlns:svg="http://www.w3.org/2000/svg"
   xmlns="http://www.w3.org/2000/svg"
   xmlns:sodipodi="http://sodipodi.sourceforge.net/DTD/sodipodi-0.dtd"
   xmlns:inkscape="http://www.inkscape.org/namespaces/inkscape"
   width="222mm"
   height="45mm"
   viewBox="0 0 222 45"
   version="1.1"
   id="svg198"
   inkscape:version="0.92.1 r15371"
   sodipodi:docname="langue-home.svg">
  <defs
     id="defs192" />
  <sodipodi:namedview
     id="base"
     pagecolor="#ffffff"
     bordercolor="#666666"
     borderopacity="1.0"
     inkscape:pageopacity="0.0"
     inkscape:pageshadow="2"
     inkscape:zoom="0.70710678"
     inkscape:cx="335.58463"
     inkscape:cy="-28.546688"
     inkscape:document-units="mm"
     inkscape:current-layer="g4547"
     showgrid="false"
     showguides="true"
     inkscape:guide-bbox="true"
     inkscape:window-width="1366"
     inkscape:window-height="714"
     inkscape:window-x="0"
     inkscape:window-y="0"
     inkscape:window-maximized="1" />
  <metadata
     id="metadata195">
    <rdf:RDF>
      <cc:Work
         rdf:about="">
        <dc:format>image/svg+xml</dc:format>
        <dc:type
           rdf:resource="http://purl.org/dc/dcmitype/StillImage" />
        <dc:title></dc:title>
      </cc:Work>
    </rdf:RDF>
  </metadata>
  <g
     inkscape:label="Livello 1"
     inkscape:groupmode="layer"
     id="layer1"
     transform="translate(0,-252)">
    <g
       id="g4547">
      <g
         id="g4567">
        <flowRoot
           transform="matrix(0.28222223,0,0,0.28222223,-47.209935,-131.88834)"
           xml:space="preserve"
           id="flowRoot4202"
           style="font-style:normal;font-weight:normal;line-height:0.01%;font-family:sans-serif;letter-spacing:0px;word-spacing:0px;fill:#000000;fill-opacity:1;stroke:none;stroke-width:1px;stroke-linecap:butt;stroke-linejoin:miter;stroke-opacity:1"><flowRegion
             id="flowRegion4204"><rect
               id="rect4206"
               width="0.97814667"
               height="133.02795"
               x="1020.207"
               y="1358.2483" /></flowRegion><flowPara
             id="flowPara4208"
             style="font-size:40px;line-height:1.25"> </flowPara></flowRoot>        <flowRoot
           transform="matrix(0.28222223,0,0,0.28222223,-47.209935,-131.88834)"
           xml:space="preserve"
           id="flowRoot4210"
           style="font-style:normal;font-weight:normal;line-height:0.01%;font-family:sans-serif;letter-spacing:0px;word-spacing:0px;fill:#000000;fill-opacity:1;stroke:none;stroke-width:1px;stroke-linecap:butt;stroke-linejoin:miter;stroke-opacity:1"><flowRegion
             id="flowRegion4212"><rect
               id="rect4214"
               width="67.492119"
               height="219.10486"
               x="964.45264"
               y="1352.3795"
               style="font-size:10px" /></flowRegion><flowPara
             id="flowPara4216"
             style="font-size:10px;line-height:1.25"> </flowPara></flowRoot>        <flowRoot
           transform="matrix(0.28222223,0,0,0.28222223,-47.209935,-131.88834)"
           xml:space="preserve"
           id="flowRoot4226"
           style="font-style:normal;font-weight:normal;line-height:0.01%;font-family:sans-serif;letter-spacing:0px;word-spacing:0px;fill:#000000;fill-opacity:1;stroke:none;stroke-width:1px;stroke-linecap:butt;stroke-linejoin:miter;stroke-opacity:1"><flowRegion
             id="flowRegion4228"><rect
               id="rect4230"
               width="71.404709"
               height="352.13281"
               x="998.68781"
               y="1339.6636" /></flowRegion><flowPara
             id="flowPara4240"
             style="font-size:40px;line-height:1.25"> </flowPara></flowRoot>        <path
           inkscape:connector-curvature="0"
           id="path4507"
           style="font-style:normal;font-variant:normal;font-weight:normal;font-stretch:normal;font-size:medium;line-height:1.25;font-family:Muli;-inkscape-font-specification:Muli;letter-spacing:0px;word-spacing:0px;fill:#000000;fill-opacity:1;stroke:none;stroke-width:1.41180527"
           d="M 0.00529423,296.5354 V 256.32718 H 4.6360158 v 36.25517 H 24.796596 v 3.95305 z" />
        <path
           inkscape:connector-curvature="0"
           id="path4509"
           style="font-style:normal;font-variant:normal;font-weight:normal;font-stretch:normal;font-size:medium;line-height:1.25;font-family:Muli;-inkscape-font-specification:Muli;letter-spacing:0px;word-spacing:0px;fill:#000000;fill-opacity:1;stroke:none;stroke-width:1.41180527"
           d="M 60.616744,296.5354 56.211912,286.20099 H 35.204248 l -4.461305,10.33441 h -4.800138 l 17.675803,-40.20822 h 4.065999 L 65.36041,296.5354 Z M 36.841942,282.36087 H 54.574218 L 45.70808,261.69204 Z" />
        <path
           inkscape:connector-curvature="0"
           id="path4511"
           style="font-style:normal;font-variant:normal;font-weight:normal;font-stretch:normal;font-size:medium;line-height:1.25;font-family:Muli;-inkscape-font-specification:Muli;letter-spacing:0px;word-spacing:0px;fill:#000000;fill-opacity:1;stroke:none;stroke-width:1.41180527"
           d="m 99.208446,256.32718 h 4.404834 V 296.5354 H 99.999057 L 75.716005,264.17682 v 32.35858 h -4.34836 v -40.20822 h 3.557749 l 24.283052,32.35858 z" />
        <path
           inkscape:connector-curvature="0"
           id="path4513"
           style="font-style:normal;font-variant:normal;font-weight:normal;font-stretch:normal;font-size:medium;line-height:1.25;font-family:Muli;-inkscape-font-specification:Muli;letter-spacing:0px;word-spacing:0px;fill:#000000;fill-opacity:1;stroke:none;stroke-width:1.41180527"
           d="m 145.29506,275.58421 v 18.63583 q -2.37183,1.24239 -6.21194,2.033 -3.84011,0.73414 -7.79317,0.73414 -5.98605,0 -10.33441,-2.42831 -4.34836,-2.48477 -6.66372,-7.1155 -2.25889,-4.63072 -2.25889,-11.06855 0,-6.38136 2.25889,-10.95561 2.31536,-4.63072 6.55077,-7.05903 4.29189,-2.48477 10.10853,-2.48477 4.23541,0 7.73669,1.29886 3.55775,1.24239 6.099,3.78364 l -1.80711,3.55775 q -2.93655,-2.48478 -5.76017,-3.55775 -2.76713,-1.12945 -6.26841,-1.12945 -6.83314,0 -10.50383,4.29189 -3.61422,4.23542 -3.61422,12.25447 0,8.18847 3.72716,12.48036 3.72717,4.23542 10.84267,4.23542 5.02602,0 9.65675,-1.58123 V 279.2549 h -9.99559 v -3.67069 z" />
        <path
           inkscape:connector-curvature="0"
           id="path4515"
           style="font-style:normal;font-variant:normal;font-weight:normal;font-stretch:normal;font-size:medium;line-height:1.25;font-family:Muli;-inkscape-font-specification:Muli;letter-spacing:0px;word-spacing:0px;fill:#000000;fill-opacity:1;stroke:none;stroke-width:1.41180527"
           d="m 170.45167,296.98718 q -7.90611,0 -11.97211,-4.066 -4.00953,-4.12247 -4.00953,-12.14153 v -24.45247 h 4.57425 v 24.84778 q 0,5.87311 2.88009,8.86614 2.88008,2.99302 8.5273,2.99302 5.59075,0 8.41436,-2.99302 2.88008,-2.99303 2.88008,-8.86614 v -24.84778 h 4.63072 v 24.45247 q 0,7.96258 -4.06599,12.08506 -4.066,4.12247 -11.85917,4.12247 z" />
        <path
           inkscape:connector-curvature="0"
           id="path4517"
           style="font-style:normal;font-variant:normal;font-weight:normal;font-stretch:normal;font-size:medium;line-height:1.25;font-family:Muli;-inkscape-font-specification:Muli;letter-spacing:0px;word-spacing:0px;fill:#000000;fill-opacity:1;stroke:none;stroke-width:1.41180527"
           d="m 196.00359,296.5354 v -40.20822 h 25.41249 v 3.84011 h -20.83825 v 14.00511 h 19.70881 v 3.89659 h -19.70881 v 14.6263 h 20.83825 v 3.84011 z" />
      </g>
      <path
         sodipodi:nodetypes="cssccccc"
         inkscape:connector-curvature="0"
         id="path6644"
         d="m 2.9348276,256.32651 h 6.2490172 c 0.9624882,0 1.9792112,1.582 1.9792112,2.75452 v 24.36842 l -3.2986804,-7.92401 -3.23265,7.89974 0.0041,-24.44104 z"
         style="opacity:0.8;fill:#aa0000;fill-opacity:1;fill-rule:evenodd;stroke:none;stroke-width:0.28222224px;stroke-linecap:butt;stroke-linejoin:miter;stroke-opacity:1" />
    </g>
  </g>
</svg>
