<?xml version="1.0" encoding="UTF-8" standalone="no"?>
<svg
   xmlns:dc="http://purl.org/dc/elements/1.1/"
   xmlns:cc="http://creativecommons.org/ns#"
   xmlns:rdf="http://www.w3.org/1999/02/22-rdf-syntax-ns#"
   xmlns:svg="http://www.w3.org/2000/svg"
   xmlns="http://www.w3.org/2000/svg"
   xmlns:sodipodi="http://sodipodi.sourceforge.net/DTD/sodipodi-0.dtd"
   xmlns:inkscape="http://www.inkscape.org/namespaces/inkscape"
   height="45"
   id="Layer_1"
   version="1.1"
   viewBox="0 0 45 45"
   width="45"
   xml:space="preserve"
   sodipodi:docname="menu-icon.svg"
   inkscape:version="0.92.1 r15371"><metadata
     id="metadata9"><rdf:RDF><cc:Work
         rdf:about=""><dc:format>image/svg+xml</dc:format><dc:type
           rdf:resource="http://purl.org/dc/dcmitype/StillImage" /><dc:title></dc:title></cc:Work></rdf:RDF></metadata><defs
     id="defs7" /><sodipodi:namedview
     pagecolor="#ffffff"
     bordercolor="#666666"
     borderopacity="1"
     objecttolerance="10"
     gridtolerance="10"
     guidetolerance="10"
     inkscape:pageopacity="0"
     inkscape:pageshadow="2"
     inkscape:window-width="1366"
     inkscape:window-height="714"
     id="namedview5"
     showgrid="false"
     inkscape:zoom="11.313709"
     inkscape:cx="16.350541"
     inkscape:cy="32.021835"
     inkscape:window-x="0"
     inkscape:window-y="0"
     inkscape:window-maximized="1"
     inkscape:current-layer="Layer_1"
     showguides="true"
     inkscape:guide-bbox="true" /><path
     d="m 10.336976,16.91347 h 24 c 1.104,0 2,-0.896 2,-2 0,-1.104 -0.896,-2 -2,-2 h -24 c -1.1040004,0 -2.0000004,0.896 -2.0000004,2 0,1.104 0.896,2 2.0000004,2 z m 24,4 h -24 c -1.1040004,0 -2.0000004,0.896 -2.0000004,2 0,1.104 0.896,2 2.0000004,2 h 24 c 1.104,0 2,-0.896 2,-2 0,-1.104 -0.896,-2 -2,-2 z m 0,8 h -24 c -1.1040004,0 -2.0000004,0.896 -2.0000004,2 0,1.104 0.896,2 2.0000004,2 h 24 c 1.104,0 2,-0.896 2,-2 0,-1.104 -0.896,-2 -2,-2 z"
     id="path2"
     style="fill:#a7cde2;fill-opacity:1"
     inkscape:connector-curvature="0" /><circle
     style="opacity:1;fill:none;fill-opacity:1;stroke:#a7cde2;stroke-width:3.08680916;stroke-miterlimit:4;stroke-dasharray:none;stroke-opacity:1"
     id="path4486"
     cx="22.512377"
     cy="22.548468"
     r="20.680729" /></svg>